<?xml version="1.0" encoding="utf-8"?>
<!-- Generator: Adobe Illustrator 15.0.2, SVG Export Plug-In . SVG Version: 6.00 Build 0)  -->
<!DOCTYPE svg PUBLIC "-//W3C//DTD SVG 1.1//EN" "http://www.w3.org/Graphics/SVG/1.1/DTD/svg11.dtd">
<svg version="1.1" xmlns="http://www.w3.org/2000/svg" xmlns:xlink="http://www.w3.org/1999/xlink" x="0px" y="0px" width="967px"
	 height="184px" viewBox="0 0 967 184" enable-background="new 0 0 967 184" xml:space="preserve">
<g id="Layer_1">
	<g>
		<path d="M11.953,61.57h49.622c13.525,0,23.146,4.011,28.861,12.031c3.354,4.74,5.033,10.209,5.033,16.406
			c0,7.24-2.058,13.178-6.172,17.812c-2.136,2.449-5.209,4.688-9.219,6.719c5.885,2.24,10.286,4.766,13.203,7.578
			c5.156,5,7.734,11.902,7.734,20.703c0,7.396-2.333,14.089-6.996,20.078c-6.97,8.959-18.054,13.438-33.25,13.438H11.953V61.57z
			 M55.766,110.086c6.631,0,11.788-0.911,15.472-2.734c5.789-2.864,8.684-8.02,8.684-15.469c0-7.5-3.079-12.551-9.236-15.156
			c-3.474-1.458-8.633-2.188-15.474-2.188H27.188v35.547H55.766z M61.021,163.055c9.622,0,16.482-2.76,20.583-8.281
			c2.576-3.489,3.865-7.708,3.865-12.656c0-8.333-3.76-14.01-11.278-17.031c-3.996-1.614-9.279-2.422-15.852-2.422H27.188v40.391
			H61.021z"/>
		<path d="M138.85,96h12.285l29.158,80.336h-11.922l-8.387-24.062h-31.518l-8.712,24.062h-11.156L138.85,96z M156.896,143.414
			l-12.369-35.492l-12.853,35.492H156.896z"/>
		<path d="M244.258,96l0.01,10h-31.07l-0.01,70.336h-10.992L202.184,106h-27.07l0.012-10H244.258z"/>
		<path d="M308.672,96l-0.125,10h-27.07l0.125,70.336h-10.992L270.664,106h-27.07l-0.055-10H308.672z"/>
		<path d="M318.68,96h10.883v70.766h40.305v9.57H318.68V96z"/>
		<path d="M382.008,96h58.297v9.844h-47.688v24.391h44.078v9.297h-44.078v27.234h48.508v9.57h-59.117V96z"/>
		<path d="M462.781,150.414c0.246,4.558,1.281,8.258,3.107,11.102c3.478,5.323,9.605,7.984,18.386,7.984
			c3.933,0,7.515-0.583,10.747-1.75c6.251-2.26,9.377-6.307,9.377-12.141c0-4.375-1.324-7.492-3.974-9.352
			c-2.685-1.823-6.887-3.409-12.608-4.758l-10.543-2.461c-6.887-1.604-11.762-3.372-14.622-5.305
			c-4.945-3.354-7.417-8.367-7.417-15.039c0-7.219,2.43-13.143,7.291-17.773c4.859-4.63,11.743-6.945,20.648-6.945
			c8.195,0,15.158,2.033,20.888,6.098c5.729,4.065,8.595,10.564,8.595,19.496H502.43c-0.524-4.302-1.644-7.602-3.355-9.898
			c-3.182-4.192-8.582-6.289-16.201-6.289c-6.152,0-10.574,1.349-13.266,4.047c-2.692,2.698-4.037,5.833-4.037,9.406
			c0,3.938,1.59,6.818,4.769,8.641c2.085,1.167,6.801,2.625,14.148,4.375l10.915,2.57c5.264,1.24,9.326,2.935,12.187,5.086
			c4.946,3.755,7.419,9.206,7.419,16.352c0,8.896-3.155,15.258-9.467,19.086s-13.645,5.742-22,5.742
			c-9.743,0-17.369-2.552-22.88-7.656c-5.514-5.067-8.216-11.94-8.106-20.617H462.781z"/>
		<path d="M530.648,96h10.992v33.195h41.289V96h10.992v80.336H582.93v-37.57h-41.289v37.57h-10.992V96z"/>
		<path d="M613.719,96h10.992v80.336h-10.992V96z"/>
		<path d="M643.414,96h35.949c7.106,0,12.845,2.015,17.215,6.043c4.37,4.029,6.555,9.689,6.555,16.98
			c0,6.271-1.95,11.73-5.849,16.379c-3.9,4.648-9.867,6.973-17.903,6.973h-25.084v33.961h-10.883V96z M685.625,107.047
			c-2.389-1.13-5.665-1.695-9.827-1.695h-21.501v27.836h21.501c4.85,0,8.786-1.039,11.809-3.117s4.534-5.742,4.534-10.992
			C692.141,113.172,689.969,109.162,685.625,107.047z"/>
		<path d="M764.797,61.57h22.273l33,97.031l32.766-97.031h22.117v114.766h-14.844v-67.734c0-2.344,0.051-6.223,0.156-11.641
			c0.104-5.416,0.156-11.223,0.156-17.422l-32.766,96.797H812.25l-33.078-96.797v3.516c0,2.812,0.078,7.097,0.234,12.852
			c0.156,5.756,0.234,9.988,0.234,12.695v67.734h-14.844V61.57z"/>
		<path d="M895.852,96h58.297v9.844h-47.688v24.391h44.078v9.297h-44.078v27.234h48.508v9.57h-59.117V96z"/>
	</g>
</g>
<g id="Layer_2" display="none">
	<rect x="230" y="97" display="inline" width="32" height="9"/>
</g>
<g id="Layer_3">
	<g>
		
			<sodipodi:namedview  id="base" pagecolor="#ffffff" bordercolor="#666666" borderopacity="1.0" inkscape:pageopacity="0.0" inkscape:pageshadow="2" inkscape:zoom="0.98994949" inkscape:cx="461.02679" inkscape:cy="426.24238" inkscape:document-units="px" inkscape:current-layer="layer1" showgrid="false" inkscape:snap-bbox="true" inkscape:snap-center="true" inkscape:window-width="1440" inkscape:window-height="838" inkscape:window-x="-8" inkscape:window-y="-8" inkscape:window-maximized="1">
			</sodipodi:namedview>
		<g id="layer1" transform="translate(0,-308.2677)" inkscape:label="Layer 1" inkscape:groupmode="layer">
			
				<linearGradient id="path5393_1_" gradientUnits="userSpaceOnUse" x1="144.7104" y1="1517.7443" x2="133.3711" y2="1527.0219" gradientTransform="matrix(1 0 0 -1 91 1919.0354)">
				<stop  offset="0" style="stop-color:#1A1A1A"/>
				<stop  offset="1" style="stop-color:#1A1A1A;stop-opacity:0"/>
			</linearGradient>
			
				<path id="path5393" inkscape:connector-curvature="0" sodipodi:nodetypes="ccccc" fill="url(#path5393_1_)" stroke="#000000" stroke-width="3" stroke-linecap="round" stroke-linejoin="round" d="
				M253.789,367.163l-38.909-1.939l-34.514,39.704l0.255-0.151l43.328,0.116"/>
			<path id="path2989" inkscape:connector-curvature="0" sodipodi:nodetypes="cc" fill="none" stroke="#000000" d="M179.5,404.927
				h96"/>
			
				<linearGradient id="path2991_1_" gradientUnits="userSpaceOnUse" x1="222.1963" y1="1514.3566" x2="175.909" y2="1544.6073" gradientTransform="matrix(1 0 0 -1 91 1919.0354)">
				<stop  offset="0" style="stop-color:#1A1A1A"/>
				<stop  offset="1" style="stop-color:#1A1A1A;stop-opacity:0"/>
			</linearGradient>
			
				<path id="path2991" inkscape:connector-curvature="0" sodipodi:nodetypes="ccccc" fill="url(#path2991_1_)" stroke="#000000" stroke-width="3" stroke-linecap="round" stroke-linejoin="round" d="
				M224.061,405.244l61.886-77.193l0,0l14.579,48.108l-26.606,28.794"/>
			
				<linearGradient id="path2993_1_" gradientUnits="userSpaceOnUse" x1="155.457" y1="1570.5743" x2="195.2204" y2="1570.5743" gradientTransform="matrix(1 0 0 -1 91 1919.0354)">
				<stop  offset="0" style="stop-color:#000000"/>
				<stop  offset="1" style="stop-color:#000000;stop-opacity:0"/>
			</linearGradient>
			
				<path id="path2993" inkscape:connector-curvature="0" sodipodi:nodetypes="cccc" fill="url(#path2993_1_)" stroke="#000000" stroke-width="3" stroke-linecap="round" stroke-linejoin="round" d="
				M246.584,377.254l3.28-14.943l35.718-42.643l0.51,8.383"/>
			
				<rect id="rect2998-9" x="226.473" y="370.532" transform="matrix(-0.9791 0.2033 -0.2033 -0.9791 529.9789 692.302)" fill="#FFFFFF" stroke="#000000" stroke-width="3" stroke-linecap="round" stroke-linejoin="round" width="5.928" height="5.67"/>
			
				<rect id="rect2998-4" x="220.622" y="376.874" transform="matrix(-0.9792 0.2031 -0.2031 -0.9792 519.6393 706.0845)" fill="#FFFFFF" stroke="#000000" stroke-width="3" stroke-linecap="round" stroke-linejoin="round" width="5.928" height="5.669"/>
			
				<rect id="rect2998-8" x="214.77" y="383.217" transform="matrix(-0.9791 0.2032 -0.2032 -0.9791 509.3781 719.7991)" fill="#FFFFFF" stroke="#000000" stroke-width="3" stroke-linecap="round" stroke-linejoin="round" width="5.927" height="5.67"/>
			
				<rect id="rect2998-2" x="203.066" y="395.902" transform="matrix(-0.9791 0.2032 -0.2032 -0.9791 488.7978 747.2773)" fill="#FFFFFF" stroke="#000000" stroke-width="3" stroke-linecap="round" stroke-linejoin="round" width="5.927" height="5.67"/>
			
				<rect id="rect2998-45" x="208.917" y="389.559" transform="matrix(-0.9791 0.2034 -0.2034 -0.9791 499.1611 733.477)" fill="#FFFFFF" stroke="#000000" stroke-width="3" stroke-linecap="round" stroke-linejoin="round" width="5.928" height="5.671"/>
		</g>
	</g>
</g>
</svg>
